<?xml version="1.0" encoding="utf-8"?>
<!-- Generator: Adobe Illustrator 16.0.0, SVG Export Plug-In . SVG Version: 6.00 Build 0)  -->
<!DOCTYPE svg PUBLIC "-//W3C//DTD SVG 1.1//EN" "http://www.w3.org/Graphics/SVG/1.1/DTD/svg11.dtd">
<svg version="1.1"
	 id="svg6625" inkscape:version="0.46" sodipodi:docname="girl japanese character.svg" xmlns:inkscape="http://www.inkscape.org/namespaces/inkscape" xmlns:rdf="http://www.w3.org/1999/02/22-rdf-syntax-ns#" xmlns:cc="http://creativecommons.org/ns#" xmlns:dc="http://purl.org/dc/elements/1.1/" xmlns:sodipodi="http://sodipodi.sourceforge.net/DTD/sodipodi-0.dtd" xmlns:svg="http://www.w3.org/2000/svg" xmlns:ns1="http://sozi.baierouge.fr" sodipodi:version="0.32" inkscape:output_extension="org.inkscape.output.svg.inkscape"
	 xmlns="http://www.w3.org/2000/svg" xmlns:xlink="http://www.w3.org/1999/xlink" x="0px" y="0px" width="200px" height="120px"
	 viewBox="0 0 200 120" enable-background="new 0 0 200 120" xml:space="preserve">
<sodipodi:namedview  inkscape:document-units="px" inkscape:pageopacity="0.0" inkscape:window-width="1920" inkscape:current-layer="layer1" inkscape:window-x="0" inkscape:window-height="1088" inkscape:window-y="22" inkscape:pageshadow="2" inkscape:cy="251.8491" inkscape:cx="208.32483" borderopacity="1.0" showgrid="false" inkscape:zoom="1.979899" pagecolor="#ffffff" bordercolor="#666666" id="base" guidetolerance="10" gridtolerance="10000" objecttolerance="10">
	</sodipodi:namedview>
<g id="layer1" transform="translate(-125.75 -643.61)" inkscape:groupmode="layer" inkscape:label="Layer 1">
	<g id="g7183" transform="matrix(.56758 0 0 .56758 54.375 424.26)">
		<path id="path6654" fill="#816647" d="M146.771,429.277c0,0-13.291,18.317-7.904,23.704c5.391,5.386,10.777,11.85,10.777,11.85
			l107.385,12.572l-2.514,6.464c0,0,8.981,2.514,12.932,1.795c3.95-0.718,7.899-3.591,7.899-3.591l0.36-46.332L146.771,429.277
			L146.771,429.277z"/>
		<path id="path6373" fill="#FDD99B" d="M152.146,517.282l-16.497,3.923c0,0-13.358,0.396-9.035-10.21c0,0,6.678-9.821,9.426-9.038
			c0,0-7.069-11.392-2.358-12.177c2.358,1.966,16.893,12.964,16.893,12.964L152.146,517.282L152.146,517.282z"/>
		<path id="path6371" fill="#FDD99B" d="M261.356,517.671l18.463,7.86c0,0,12.18,3.534,14.143-1.18c0,0-1.177-18.465-17.677-16.108
			c0,0,4.714-6.285,4.714-9.033c0,0-11.392-2.749-14.534,0l-4.326,20.425L261.356,517.671z"/>
		<path id="path6391" fill="#FDD99B" d="M222.072,559.312l3.142,18.856c0,0-1.177,6.285-3.925,9.429l-5.895,5.501
			c0,0-3.143,5.499,4.324,4.714c5.891-1.965,24.355-9.821,24.355-9.821s4.32-2.751,2.748-6.679c0,0-16.893-20.822-14.535-24.356
			L222.072,559.312L222.072,559.312z"/>
		<path id="path6393" fill="#FDD99B" d="M179.254,559.705c2.751,0,16.893,1.573,16.893,1.573l-7.86,26.32
			c0,0-2.357,7.462-10.21,5.501c0,0-10.215-2.749-12.178-1.18c0,0-5.499,1.18-7.072,0c0,0-7.466-3.534-3.538-5.891l18.073-8.248
			L179.254,559.705L179.254,559.705z"/>
		<path id="path6369" fill="#FF9BFF" d="M183.968,491.745c-1.573,0-36.927,2.357-36.927,2.357l1.18,25.141l24.355,0.785
			l-0.394,17.679c0,0-4.711,17.677-6.678,18.463c0,0,6.285,21.211,86.03,4.319l-14.534-22.392l7.072-18.462
			c0,0,21.211,9.823,22.393,5.499c1.177-4.319,3.142-28.675,3.142-28.675l-38.107-2.751L183.968,491.745L183.968,491.745z"/>
		<path id="path6383" fill="#FFD1FF" d="M189.073,495.279c0,1.573,11.001,22.003,11.001,22.003l14.143-16.502L189.073,495.279z"/>
		<path id="path6381" fill="#EEB8EE" d="M211.466,498.817l-21.607,24.356l14.143,1.569l24.356-25.926H211.466z"/>
		<path id="path6375" fill="#FDD99B" d="M148.221,431.246c0,0-14.929,62.857,55.781,71.105c0,0,65.605,9.429,69.535-62.853
			c-0.396-1.967-53.429-32.607-53.429-32.607L148.221,431.246z"/>
		<path id="path6377" fill="#FF9BFF" d="M193.789,484.279c0,0,17.285,8.253,28.283,1.967
			C222.072,486.246,202.431,504.708,193.789,484.279L193.789,484.279z"/>
		<path id="path6367" fill="#816647" d="M210.289,393.537l-7.858-7.072c0,0-72.283,9.425-74.64,86.423l31.428,0.785
			c0,0-22.785-24.355-11.784-35.355l62.068,1.571l12.569-21.211c0,0-6.284,21.998-0.783,21.998c5.497,0,50.28,1.571,50.28,1.571
			s0.788,37.713-10.213,43.213l36.927,2.357c0,0,7.071-105.28-79.351-99.779L210.289,393.537z"/>
		<path id="path6379" fill="#D9BB7A" d="M197.326,476.425c0,0,13.747,4.714,17.677,1.962"/>
		<path id="path6385" fill="#FFE3FF" d="M169.825,521.601c9.429,0,70.71-3.534,74.248,2.749l-2.357,17.677
			c0,0-73.854,5.499-73.854-3.93L169.825,521.601z"/>
		
			<path id="path6395" sodipodi:cx="-1440.224" sodipodi:cy="1181.6343" sodipodi:type="arc" sodipodi:ry="29.832029" sodipodi:rx="34.804031" fill="#336699" d="
			M249.181,454.03c0.103-5.858-5.351-10.678-12.185-10.766c-6.832-0.089-12.457,4.587-12.56,10.444
			c-0.002,0.108-0.002,0.215,0,0.323c-0.103,5.857,5.351,10.677,12.185,10.767c6.834,0.089,12.457-4.587,12.56-10.445
			C249.184,454.244,249.184,454.137,249.181,454.03z"/>
		
			<path id="path6397" sodipodi:cx="-1440.224" sodipodi:cy="1181.6343" sodipodi:type="arc" sodipodi:ry="29.832029" sodipodi:rx="34.804031" fill="#336699" d="
			M189.663,451.291c0.103-5.857-5.351-10.677-12.185-10.766c-6.834-0.089-12.457,4.587-12.56,10.444
			c-0.002,0.108-0.002,0.215,0,0.322c-0.103,5.858,5.351,10.678,12.185,10.767c6.834,0.089,12.457-4.588,12.56-10.445
			C189.666,451.506,189.666,451.399,189.663,451.291z"/>
		
			<path id="path6399" sodipodi:cx="-1431.9374" sodipodi:cy="1185.5015" sodipodi:type="arc" sodipodi:ry="20.440464" sodipodi:rx="22.097799" fill="#EEEEEE" d="
			M181.191,451.333c0,1.953-1.714,3.537-3.823,3.537c-2.113,0-3.823-1.584-3.823-3.537c0-1.953,1.71-3.537,3.823-3.537
			C179.477,447.797,181.191,449.381,181.191,451.333z"/>
		
			<path id="path6401" sodipodi:cx="-1431.9374" sodipodi:cy="1185.5015" sodipodi:type="arc" sodipodi:ry="20.440464" sodipodi:rx="22.097799" fill="#EEEEEE" d="
			M239.818,453.994c0,1.98-1.736,3.586-3.878,3.586c-2.14,0-3.875-1.605-3.875-3.586s1.734-3.586,3.875-3.586
			C238.082,450.409,239.818,452.014,239.818,453.994z"/>
		
			<path id="path6403" sodipodi:cx="-1456.245" sodipodi:cy="1236.8788" sodipodi:type="arc" sodipodi:ry="17.67824" sodipodi:rx="33.146698" fill="#D9BB7A" d="
			M185.148,474.075c0,3.471-5.277,6.286-11.786,6.286c-6.511,0-11.786-2.815-11.786-6.286l0,0c0-3.472,5.275-6.286,11.786-6.286
			C179.871,467.789,185.148,470.603,185.148,474.075z"/>
		
			<path id="path6405" sodipodi:cx="-1456.245" sodipodi:cy="1236.8788" sodipodi:type="arc" sodipodi:ry="17.67824" sodipodi:rx="33.146698" fill="#D9BB7A" d="
			M252.701,474.861c0,3.472-5.277,6.286-11.786,6.286c-6.511,0-11.786-2.814-11.786-6.286l0,0c0-3.471,5.275-6.285,11.786-6.285
			C247.424,468.575,252.701,471.389,252.701,474.861z"/>
	</g>
</g>
</svg>
