<?xml version="1.0" encoding="utf-8"?>
<!-- Generator: Adobe Illustrator 16.0.0, SVG Export Plug-In . SVG Version: 6.00 Build 0)  -->
<!DOCTYPE svg PUBLIC "-//W3C//DTD SVG 1.1//EN" "http://www.w3.org/Graphics/SVG/1.1/DTD/svg11.dtd">
<svg version="1.1"
	 id="svg2" inkscape:version="0.46" sodipodi:docname="dodom01_women_from_above.svg" xmlns:inkscape="http://www.inkscape.org/namespaces/inkscape" xmlns:rdf="http://www.w3.org/1999/02/22-rdf-syntax-ns#" xmlns:cc="http://creativecommons.org/ns#" xmlns:dc="http://purl.org/dc/elements/1.1/" xmlns:sodipodi="http://sodipodi.sourceforge.net/DTD/sodipodi-0.dtd" xmlns:svg="http://www.w3.org/2000/svg" xmlns:ns1="http://sozi.baierouge.fr" sodipodi:version="0.32" inkscape:output_extension="org.inkscape.output.svg.inkscape"
	 xmlns="http://www.w3.org/2000/svg" xmlns:xlink="http://www.w3.org/1999/xlink" x="0px" y="0px" width="200px" height="120px"
	 viewBox="0 0 200 120" enable-background="new 0 0 200 120" xml:space="preserve">
<sodipodi:namedview  inkscape:document-units="px" inkscape:pageopacity="0.0" inkscape:window-width="1110" inkscape:current-layer="layer2" inkscape:window-x="345" inkscape:window-height="785" inkscape:window-y="90" inkscape:pageshadow="2" inkscape:cy="483.55246" inkscape:cx="329.43903" borderopacity="1.0" showgrid="false" inkscape:zoom="0.76868037" pagecolor="#ffffff" bordercolor="#666666" id="base">
	</sodipodi:namedview>
<g id="layer2" transform="translate(-23.417 -5.1129)" inkscape:groupmode="layer" inkscape:label="dessin">
	
		<path id="path2674" inkscape:export-filename="/home/dom/rect3439.png" inkscape:export-ydpi="87.986115" inkscape:export-xdpi="87.986115" fill="#002255" stroke="#000000" stroke-width="3" d="
		M96.155,120.504l9.091,0.188l-1.516-2.842l0.662-2.083l-3.889-2.104l-5.021,3.681L96.155,120.504z"/>
	
		<path id="path2672" inkscape:export-filename="/home/dom/rect3439.png" inkscape:export-ydpi="87.986115" inkscape:export-xdpi="87.986115" fill="#002255" stroke="#000000" stroke-width="3" d="
		M53.539,112.926c0,0,0,7.671,1.137,7.859c1.136,0.19,11.363-0.188,11.363-0.188l-4.641-9.565l-8.049-3.408L53.539,112.926z"/>
	
		<path id="path2670" inkscape:export-filename="/home/dom/rect3439.png" inkscape:export-ydpi="87.986115" inkscape:export-xdpi="87.986115" fill="#D8B6A0" stroke="#000000" stroke-width="2" d="
		M29.485,76.087c0,0,1.515,7.292,5.777,11.555c4.261,4.26,15.342,20.93,15.436,21.401c0.095,0.473,0.723,2.51,0.889,2.879
		c0.167,0.367,2.109,3.414,2.209,3.615c0.102,0.201,1.106,2.109,1.541-0.066c0,0-0.535-2.378-1.139-3.047
		c0,0,3.282,3.379,3.885,2.912c0.601-0.47,0.803-1.105,0.367-2.243c0,0,1.004,0.635,1.341,0.101c0.335-0.535-2.679-6.229-2.98-6.496
		c-0.302-0.268-0.603-2.043-0.335-2.076c0.267-0.032,1.641,0.669,1.641,0.669s-1.172-5.39-0.201-7.198c0,0-4.755-0.602-5.088-0.837
		c-0.336-0.235-1.507,0-4.588-5.791c-3.08-5.794-6.821-13.956-6.821-13.956L29.485,76.087z"/>
	
		<path id="path2771" inkscape:export-filename="/home/dom/rect3439.png" inkscape:export-ydpi="87.986115" inkscape:export-xdpi="87.986115" opacity="0.2862" fill="#474442" enable-background="new    " d="
		M50.815,95.6l-0.367,1.925c0,0,1.272,0.738,1.139,1.273c-0.133,0.535-0.399,1.272-0.399,1.809c0,0.534-0.268,2.139-0.805,2.539
		c-0.536,0.404,0.668,0.205,1.004,0.138c0.335-0.068-0.536,1.336-0.2,1.736c0.335,0.402-0.268,0.471-0.333,0.803
		c-0.069,0.337-0.407,2.815-0.072,3.083c0.334,0.267,0.873-0.204,1.41,0.399c0.535,0.604,1.769-1.339,2.907,0.807
		c1.139,2.141,2.082,2.574,2.349,2.644c0.268,0.066-1.41-2.038-1.577-2.272s1.845,1.674,2.047,1.809
		c0.199,0.132-1.174-1.142-0.939-1.609c0.233-0.469-0.536-0.071-0.536-0.071s-2.178-2.036-1.775-2.605
		c0.402-0.569,0.97-1.881,1.672-0.341c0.705,1.54,1.904,3.052,2.709,3.352c0.015,0.006,0.029,0.006,0.045,0.006
		c-0.828-1.829-2.093-4.154-2.286-4.323c-0.3-0.269-0.601-2.045-0.333-2.078c0.269-0.032,1.642,0.669,1.642,0.669
		s-1.171-5.392-0.199-7.199c0,0-4.757-0.601-5.09-0.836C52.61,97.101,52.031,97.139,50.815,95.6L50.815,95.6z"/>
	
		<path id="path2778" inkscape:export-filename="/home/dom/rect3439.png" inkscape:export-ydpi="87.986115" inkscape:export-xdpi="87.986115" opacity="0.3946" fill="#272726" enable-background="new    " d="
		M55.735,103.875c-0.106-0.004-0.193,0.014-0.263,0.044c-0.734,0.337-1.439,0.67-1.339,1.005c0.102,0.334,0.567,0.135,0.567,1.172
		c0,0.291-0.012,0.481-0.031,0.617c0.231-0.381,0.787-0.874,1.839,0.321c0.369,0.419,0.733,0.728,1.069,0.952
		c-0.377-0.694-0.682-1.211-0.767-1.287c-0.3-0.269-0.601-2.045-0.333-2.078c0.269-0.032,1.642,0.669,1.642,0.669
		s-0.055-0.255-0.124-0.61C57.204,104.294,56.27,103.89,55.735,103.875z M54.669,106.713c-0.092,0.15-0.136,0.283-0.136,0.283
		S54.62,107.061,54.669,106.713z"/>
	
		<path id="path2668" sodipodi:nodetypes="csssscccccscsccscc" inkscape:export-filename="/home/dom/rect3439.png" inkscape:export-ydpi="87.986115" inkscape:export-xdpi="87.986115" fill="#241F1C" stroke="#000000" stroke-width="2" d="
		M76.899,46.631c0,0-10.581,3.615-12.724,4.284c-2.143,0.669-5.357,1.474-5.892,1.474c-0.536,0-1.05-0.498-1.808,0.307
		c-0.758,0.805-2.415,1.607-2.937,1.371c-0.521-0.237-2.036-1.324-3.504,1.373c0,0-5.729-0.663-7.245,2.794
		c0,0-3.408,1.326-4.26,3.646c0,0-5.588,0.095-6.157,4.026c0,0-4.451,1.09-3.787,5.872c0,0-1.61,5.065,1.657,6.628
		c3.266,1.562,5.634,3.03,9.991,1.231c0,0,7.576-5.067,9.233-4.594c1.658,0.474,3.835,0.853,4.214,0.284c0,0,0.71,0.946,1.657,0.711
		c0,0,0.066,5.011,0.333,5.478c0.269,0.471-2.008,10.447,2.813,15.271c0,0-3.885,2.141-1.207,10.379c0,0,1.541,9.442,2.613,10.11
		c1.071,0.669,5.557,3.414,5.557,3.414l33.549-0.135l3.17-4.128c0,0-0.567-6.156-1.421-6.913c-0.852-0.759,1.184-3.644,1.374-3.787
		c0.188-0.142,1.516-2.604,0.947-4.593c0,0,6.109-0.264,6.644-20.757c0,0,1.07-2.946,2.144-2.946c1.071,0,2.544,1.876,3.08,1.811
		c0.535-0.068,1.473,2.274,1.941,2.274c0.47,0,2.011,1.876,3.951,1.743c1.942-0.135,8.945,1.823,9.8-7.932
		c0,0-0.759-1.895-0.854-2.51c-0.094-0.616-1.135-3.407-3.739-4.734c0,0-0.095-2.131-3.6-5.256c0,0-1.326-2.463-3.41-2.794
		c0,0-1.846-1.231-2.699-1.231c0,0-0.425-3.078-3.55-2.273c0,0-1.23-0.947-1.23-1.231c0,0-19.271-6.201-19.651-7.528
		C91.515,46.446,77.12,46.446,76.899,46.631z"/>
	
		<path id="path3387" inkscape:export-filename="/home/dom/rect3439.png" inkscape:export-ydpi="87.986115" inkscape:export-xdpi="87.986115" sodipodi:type="inkscape:offset" inkscape:radius="-0.88239223" inkscape:original="M 447.40625 463.125 C 446.73028 464.62636 446.47815 466.40818 446.875 468.5625 C 449.15162 480.92135 458.57523 487.75695 458.25 486.78125 C 458.24999 486.78125 473.22221 476.36111 477.125 478.3125 C 481.02779 480.2639 489.13886 482.22799 495.96875 486.78125 C 502.79863 491.33451 509.62729 498.17244 515.15625 501.75 C 520.68518 505.32754 531.76157 510.51273 533.0625 510.1875 C 534.36344 509.86228 536.30439 499.47221 538.90625 503.375 C 541.50813 507.27778 544.76619 509.5625 548.34375 509.5625 C 549.20133 509.5625 550.32511 509.18284 551.53125 508.625 C 548.64234 507.01123 545.00187 505.25 542.75 505.25 C 542.74998 505.25001 540.6783 490.30919 525.5 494.21875 C 525.50002 494.21876 519.5 489.62984 519.5 488.25 C 519.5 488.24999 475.66831 474.09802 447.40625 463.125 z " fill="#483E37" d="
		M96.819,50.368c-0.078,0.241-0.113,0.511-0.052,0.85c0.227,1.233,0.812,2.191,1.333,2.817c0.259,0.313,0.5,0.548,0.669,0.683
		c0.06,0.048,0.095,0.068,0.128,0.089c0.062-0.043,0.74-0.519,1.583-0.99c0.44-0.246,0.908-0.48,1.325-0.63
		c0.418-0.15,0.794-0.241,1.094-0.09c0.757,0.378,2.459,0.796,3.899,1.755c1.43,0.954,2.837,2.359,3.942,3.077
		c0.559,0.36,1.411,0.811,2.149,1.157c0.371,0.175,0.717,0.325,0.979,0.426c0.133,0.049,0.241,0.086,0.323,0.109
		c0.058,0.016,0.065,0.016,0.07,0.019c0.006-0.007,0.01-0.011,0.018-0.025c0.032-0.05,0.07-0.129,0.109-0.226
		c0.083-0.19,0.173-0.438,0.278-0.67c0.104-0.228,0.203-0.444,0.379-0.578c0.089-0.066,0.224-0.107,0.349-0.07
		c0.123,0.035,0.209,0.124,0.288,0.246c0.154,0.228,0.318,0.418,0.489,0.585c-0.015-0.023-0.021-0.046-0.024-0.071
		c0,0-0.108-0.733-0.574-1.359c-0.463-0.624-1.246-1.152-2.753-0.765c-0.054,0.014-0.111,0.002-0.154-0.031
		c0,0-0.316-0.239-0.631-0.514c-0.158-0.141-0.314-0.289-0.438-0.427c-0.061-0.068-0.117-0.131-0.16-0.197
		c-0.015-0.025-0.013-0.06-0.024-0.085C111.292,55.412,102.611,52.606,96.819,50.368L96.819,50.368z M116.258,58.97
		c0.38,0.342,0.791,0.542,1.221,0.542c0.035,0,0.113-0.042,0.161-0.051c-0.498-0.249-1.022-0.478-1.312-0.478
		C116.302,58.984,116.281,58.98,116.258,58.97z"/>
	
		<path id="path2666" inkscape:export-filename="/home/dom/rect3439.png" inkscape:export-ydpi="87.986115" inkscape:export-xdpi="87.986115" fill="#FFCCAA" stroke="#000000" stroke-width="2" d="
		M76.931,47.582c0,0-8.334,1.137-9.755,7.67c0,0,6.062,14.112,13.068,16.1c7.009,1.987,12.408-1.136,12.408-1.136
		s8.144-9.092,8.9-10.608s-1.8-8.995-6.817-11.553C89.715,45.499,76.931,47.677,76.931,47.582z"/>
	
		<path id="path3374" inkscape:export-filename="/home/dom/rect3439.png" inkscape:export-ydpi="87.986115" inkscape:export-xdpi="87.986115" sodipodi:type="inkscape:offset" inkscape:radius="-0.9425751" inkscape:original="M 347.625 451.46875 C 337.40787 453.74165 309.63687 462.21414 304.03125 488 C 304.03124 487.99999 326.34652 539.97984 354.59375 559.78125 C 352.07326 552.39042 349.75777 542.84488 353.84375 541.09375 C 360.67364 538.16665 373.70602 538.16207 374.03125 530.03125 C 374.35649 521.90044 363.27314 507.93291 365.875 496.875 C 367.2213 491.15321 359.511 469.31384 347.65625 451.46875 C 347.64467 451.47132 347.63663 451.46616 347.625 451.46875 z " opacity="0.5753" fill="#D8B6A0" enable-background="new    " d="
		M76.069,47.955c-1.059,0.243-2.908,0.78-4.66,1.886c-1.791,1.13-3.449,2.829-4.027,5.386c0.035,0.079,1.144,2.665,2.985,5.79
		c1.765,2.996,4.179,6.422,6.852,8.487c-0.187-0.609-0.35-1.239-0.412-1.808c-0.041-0.376-0.041-0.729,0.033-1.023
		c0.075-0.294,0.239-0.552,0.515-0.669c0.743-0.319,1.769-0.463,2.599-0.741c0.416-0.138,0.778-0.309,1.029-0.528
		c0.253-0.218,0.397-0.469,0.412-0.835c0.031-0.746-0.505-1.889-1.002-3.107c-0.499-1.221-0.956-2.543-0.669-3.757
		c0.053-0.229,0.016-0.721-0.13-1.353c-0.145-0.632-0.39-1.413-0.721-2.271C78.225,51.729,77.247,49.749,76.069,47.955z"/>
	
		<path id="path2664" sodipodi:nodetypes="cccscccccccc" inkscape:export-filename="/home/dom/rect3439.png" inkscape:export-ydpi="87.986115" inkscape:export-xdpi="87.986115" fill="#F1CAB0" stroke="#000000" stroke-width="2" d="
		M71.532,35.932c0,0,1.326,10.987,1.799,11.366c3.968,5.24,7.604,14.61,15.531,10.511c2.036-1.252,8.491-10.114,7.672-9.754
		c-0.492,0.214,1.702-4.925,1.702-4.925l0.189-11.174l-0.947-7.86l-3.976-2.747l-11.838-2.462l-6.723,1.893l-3.221,4.83
		L71.532,35.932z"/>
	
		<path id="path2716" inkscape:export-filename="/home/dom/rect3439.png" inkscape:export-ydpi="87.986115" inkscape:export-xdpi="87.986115" opacity="0.5663" fill="#FCDEC8" enable-background="new    " d="
		M88.751,21.452l-3.682,1.339l-6.967,2.946l-0.399,5.695c0,0,4.418,4.484,4.82,4.819c0.401,0.333,1.472,4.015,1.472,4.015
		l-1.202,5.83c0,0,0.333,2.61,0.533,3.482c0.202,0.869,2.946-0.132,3.618-0.399c0.669-0.269,1.545-2.414,1.545-2.414
		s-0.606,0.268-2.28,0.805c-1.673,0.535-0.535-2.948-0.802-3.281c-0.268-0.336,0.267-5.962,1.139-6.364
		c0.87-0.403,0.8,0.804,2.876,2.612c2.074,1.808,2.079,0,2.546,0.333c0.47,0.336,2.207-0.871,3.346-0.133
		c1.14,0.736,1.874,4.285,1.874,4.285c0.657-2.203,0.979-4.645,1.133-6.562l0.058-3.675l-2.928-9.581L88.751,21.452z"/>
	
		<path id="path2707" inkscape:export-filename="/home/dom/rect3439.png" inkscape:export-ydpi="87.986115" inkscape:export-xdpi="87.986115" opacity="0.0934" fill="#D8B6A0" enable-background="new    " d="
		M81.667,18.885l-6.723,1.898l-3.224,4.826l-0.188,10.327c0,0,0.188,1.543,0.444,3.492c0.626,0.404,1.075,0.845,1.171,1.308
		c0.402,1.941,1.806,3.956,2.342,4.157c0.535,0.2,0.407-1.546,0.541-2.015c0.134-0.467,0.536-0.938,0.669-1.942
		c0.134-1.004,2.139-0.8,3.01-0.734c0.871,0.067,1.739-0.871,2.344-0.47c0.601,0.404-0.934,3.685-1.269,3.887
		c-0.335,0.2-0.47,2.007-0.47,2.677c0,0.67-1.207,0.737-0.805,1.809c0.402,1.07,3.28,0.737,3.815,0.669
		c0.538-0.068,0.669-2.343,0.535-2.812c-0.133-0.467,0.674-2.878,0.54-3.48c-0.134-0.603,0.803-3.551,0.536-4.555
		c-0.267-1.006-3.752-4.484-4.756-5.019c-1.005-0.536,1.004-2.548,1.004-2.548s-0.469-2.006-0.334-2.876
		c0.134-0.869,3.417-2.816,3.417-2.816s2.208,0.47,1.872-0.599c-0.335-1.072,2.747-2.079,2.747-2.079l-1.786-1.969L81.667,18.885z"
		/>
	
		<path id="path2676" inkscape:export-filename="/home/dom/rect3439.png" inkscape:export-ydpi="87.986115" inkscape:export-xdpi="87.986115" fill="#FFCCAA" stroke="#000000" stroke-width="2" d="
		M128.656,81.136c-2.465,2.998-6.442,2.028-7.83,2.124c-1.942,0.133-3.482-1.745-3.952-1.745c-0.055,0-0.113-0.031-0.178-0.09
		c-1.8,2.467-7.032,9.649-7.315,9.935c-0.104,0.104-0.433,0.242-0.824,0.38c-1.921,9.231-5.489,9.394-5.489,9.394
		c0.568,1.988-0.759,4.453-0.945,4.594c-0.189,0.142-2.229,3.033-1.377,3.791c0.614,0.547,1.081,3.894,1.293,5.719l0.875-0.688
		c-0.336,1.038,0.805,1.158,0.938,1.104c0.135-0.048,1.091-2.157,1.727-3.75c0.636-1.59-0.551-2.594-0.817-3.332
		c-0.269-0.737,2.005-5.959,2.54-6.294c0.536-0.334,8.236-6.967,8.236-6.967c3.884-1.473,12.122-11.716,12.593-12.251
		C128.313,82.848,128.499,82.037,128.656,81.136z"/>
	
		<path id="path3385" inkscape:export-filename="/home/dom/rect3439.png" inkscape:export-ydpi="87.986115" inkscape:export-xdpi="87.986115" sodipodi:type="inkscape:offset" inkscape:radius="-0.92170638" inkscape:original="M 545.71875 615.65625 C 545.29832 620.43182 544.39245 630.0751 543.875 630.9375 C 543.41194 631.70926 552.27181 627.07275 559.46875 623.46875 C 552.86452 621.63741 547.78567 616.18811 545.71875 615.65625 z " fill="#241F1C" d="
		M117.101,81.837c-0.044,0.476-0.096,1.051-0.155,1.598c-0.035,0.322-0.073,0.618-0.108,0.85c-0.006,0.044-0.014,0.072-0.021,0.113
		c0.174-0.075,0.389-0.173,0.672-0.313c0.521-0.259,1.197-0.6,1.831-0.921c-0.539-0.212-1.026-0.487-1.42-0.766
		c-0.247-0.174-0.463-0.34-0.639-0.463C117.184,81.88,117.16,81.874,117.101,81.837L117.101,81.837z"/>
	
		<path id="path2714" inkscape:export-filename="/home/dom/rect3439.png" inkscape:export-ydpi="87.986115" inkscape:export-xdpi="87.986115" opacity="0.6175" fill="#FCDEC8" enable-background="new    " d="
		M89.02,43.818c0,0,0.469,2.209,0.2,2.813c-0.267,0.601,1.743,3.816,2.145,4.218c0.401,0.402,1.808-1.072,2.142-1.607
		c0.335-0.536,1.072-2.144,1.539-2.144c0.47,0,0.336-0.868-0.267-1.205C94.177,45.558,89.622,43.417,89.02,43.818z"/>
	
		<path id="path2678" sodipodi:nodetypes="cccccc" inkscape:export-filename="/home/dom/rect3439.png" inkscape:export-ydpi="87.986115" inkscape:export-xdpi="87.986115" fill="#AA0000" d="
		M79.249,48.576c0,0,1.468,6.392,5.754,5.848c5.042-0.072,6.131-5.516,6.131-5.516s-4.593,0.022-5.941,0.496l-0.047-0.023
		C82.942,48.41,79.249,48.576,79.249,48.576z"/>
	
		<path id="path2662" sodipodi:nodetypes="ccsssccscccccccc" inkscape:export-filename="/home/dom/rect3439.png" inkscape:export-ydpi="87.986115" inkscape:export-xdpi="87.986115" fill="#C6A318" d="
		M72.479,40.573c0,0-0.758-4.451,0-6.059c0,0-0.474-1.799-0.095-3.599c0.379-1.799,0.189-3.221,0.947-3.978
		c0.758-0.758,1.894-3.979,2.652-4.073c0.757-0.095,4.639-1.989,5.585-1.515c7.173,0.768,9.216,3.303,13.07,9.47
		c0.284,0.663,3.124,8.238,2.745,11.173c-0.379,2.937-2.271,12.975-4.923,15.342c0,0,6.532-7.386,6.723-17.804
		c0,0,1.42-2.272,1.325-3.031c0,0,0,16.386-3.504,21.024c8.231-14.272,10.959-45.649-11.175-47.351c0,0-3.219,0.947-4.451-0.283
		c-10.978,4.516-10.375,9.653-11.837,14.678C69.732,43.51,72.479,40.573,72.479,40.573z"/>
	
		<path id="path2683" inkscape:export-filename="/home/dom/rect3439.png" inkscape:export-ydpi="87.986115" inkscape:export-xdpi="87.986115" fill="#F4D7D7" d="
		M80.243,48.883c0,0,2.084,3.504,4.713,3.552c0,0,1.823,0.593,4.875-3.101h0.072C84.199,51.654,80.243,48.883,80.243,48.883z"/>
	
		<path id="path3378" inkscape:export-filename="/home/dom/rect3439.png" inkscape:export-ydpi="87.986115" inkscape:export-xdpi="87.986115" sodipodi:type="inkscape:offset" inkscape:radius="-2.4453149" inkscape:original="M 349.40625 287.78125 C 346.3206 287.70901 342.3105 287.98547 338.125 288.4375 C 320.55708 304.74929 320.47231 321.98052 315.53125 338.96875 C 316.45113 430.95844 329.78125 416.71875 329.78125 416.71875 C 329.78125 416.71875 326.10166 395.10038 329.78125 387.28125 C 329.78125 387.28125 327.47271 378.55152 329.3125 369.8125 C 331.1523 361.07347 330.25791 354.14834 333.9375 350.46875 C 336.95825 347.44799 341.19148 336.37556 344.65625 332.25 C 344.7741 327.97963 345.0619 324.40685 345.65625 323.8125 C 347.26607 322.20268 362.21876 315.75001 362.21875 315.75 C 359.91901 315.75 348.41108 309.76122 347.03125 309.53125 C 345.6514 309.30128 353.00001 298.96876 353 298.96875 C 351.39018 298.96875 346.81249 298.03125 346.8125 298.03125 C 348.19235 296.42143 354.84374 288.84375 354.84375 288.84375 C 353.98135 288.15383 352.02513 287.84256 349.40625 287.78125 z " fill="#FFCC00" d="
		M76.506,14.53c-0.548-0.012-1.306,0.043-2.084,0.121c-3.331,3.177-3.371,6.468-4.375,9.974c0.097,9.393,0.86,13.379,1.499,14.852
		c0.155,0.356,0.28,0.535,0.373,0.636c-0.055-0.354-0.15-0.886-0.224-1.931c-0.092-1.269-0.132-2.675,0.27-3.692
		c-0.055-0.222-0.46-1.853-0.076-3.674c0.179-0.857,0.227-1.641,0.328-2.348c0.101-0.708,0.261-1.381,0.766-1.886
		c0.178-0.178,0.587-0.914,0.972-1.667c0.351-0.687,0.707-1.373,1.093-1.886c0.013-0.387,0.027-0.755,0.058-1.048
		c0.018-0.167,0.041-0.317,0.072-0.451c0.028-0.133,0.022-0.243,0.217-0.438c0.12-0.12,0.21-0.167,0.34-0.243
		s0.284-0.163,0.457-0.251c0.346-0.177,0.768-0.373,1.177-0.561c0.229-0.104,0.239-0.106,0.445-0.2
		c-0.168-0.073-0.329-0.139-0.502-0.217c-0.345-0.159-0.682-0.317-0.945-0.439c-0.133-0.06-0.246-0.108-0.329-0.143
		c-0.082-0.032-0.173-0.051-0.09-0.036c-0.185-0.031-0.4-0.253-0.437-0.406c-0.037-0.153-0.017-0.236,0-0.309
		c0.032-0.142,0.082-0.246,0.142-0.366c0.117-0.242,0.286-0.515,0.463-0.792c0.13-0.205,0.152-0.23,0.271-0.404
		c-0.269-0.047-0.503-0.091-0.503-0.091c-0.175-0.037-0.318-0.162-0.375-0.333c-0.056-0.169-0.019-0.355,0.099-0.49
		c0.195-0.229,0.667-0.77,1.093-1.256C76.598,14.542,76.625,14.532,76.506,14.53z"/>
	
		<path id="path3376" inkscape:export-filename="/home/dom/rect3439.png" inkscape:export-ydpi="87.986115" inkscape:export-xdpi="87.986115" sodipodi:type="inkscape:offset" inkscape:radius="-2.2908044" inkscape:original="M 394.625 269.0625 C 394.62499 269.0625 389.40622 270.60703 383.84375 270.75 C 380.25057 273.65461 376.68546 276.75527 377.15625 277.34375 C 378.07614 278.49363 387.06161 277.8125 390.28125 277.8125 C 393.5009 277.8125 416.46875 287 416.46875 287 C 416.46875 287 392.55063 282.17628 387.03125 282.40625 C 381.51188 282.63622 390.27705 291.82526 397.40625 294.125 C 404.53545 296.42473 388.18532 301.04643 379.90625 302.65625 C 371.62716 304.26607 367.94631 306.33405 368.40625 309.09375 C 368.84622 311.73365 391.61401 298.18679 405.0625 332.03125 C 417.734 339.21806 425.90729 350.94793 437.40625 369.34375 C 438.78609 372.56339 452.58979 409.3666 450.75 423.625 C 449.14485 436.06487 441.9274 474.75741 431.5625 492.0625 C 440.43198 479.83282 458.80293 449.99513 459.5 411.65625 C 459.5 411.65626 465.53409 402.00941 465.9375 397.75 C 465.925 401.64552 465.51248 460.48154 454.03125 489.375 C 489.80508 416.52118 497.37408 276.95752 394.625 269.0625 z M 454.03125 489.375 C 452.37596 492.74602 450.67421 495.96552 448.90625 499.03125 C 450.83064 496.48274 452.51747 493.18455 454.03125 489.375 z M 431.46875 492.21875 C 428.69877 496.02582 426.84375 498.125 426.84375 498.125 C 428.45357 496.68766 429.9811 494.68019 431.46875 492.21875 z " fill="#FFCC00" d="
		M85.855,10.65c-0.143,0.04-0.999,0.266-2.046,0.322c-0.246,0.2-0.458,0.389-0.657,0.565c0.09,0,0.154,0.007,0.25,0.007
		c0.555-0.007,1.168-0.039,1.532-0.039c0.195,0,0.339,0.041,0.548,0.097c0.206,0.056,0.446,0.128,0.721,0.218
		c0.546,0.181,1.205,0.421,1.841,0.657c1.27,0.476,2.456,0.953,2.456,0.953c0.225,0.09,0.344,0.336,0.275,0.568
		c-0.067,0.233-0.3,0.377-0.539,0.333c0,0-1.233-0.248-2.598-0.488c-0.684-0.122-1.396-0.245-2.008-0.33
		c-0.496-0.068-0.832-0.086-1.087-0.096c0.053,0.088,0.053,0.115,0.161,0.232c0.432,0.474,1.233,1.038,1.844,1.236
		c0.23,0.074,0.431,0.149,0.587,0.399c0.078,0.123,0.117,0.302,0.09,0.449c-0.027,0.146-0.098,0.253-0.168,0.335
		c-0.273,0.325-0.638,0.457-1.1,0.636c-0.922,0.358-2.19,0.68-3.07,0.851c-0.541,0.104-0.936,0.222-1.26,0.339
		c0.465-0.054,1.007-0.095,1.647,0.006c1.653,0.262,3.646,1.451,5.069,4.917c2.644,1.551,4.36,4.023,6.691,7.752
		c0.013,0.023,0.024,0.044,0.032,0.066c0.176,0.406,0.937,2.423,1.642,4.788c0.704,2.363,1.361,4.965,1.145,6.633
		c-0.204,1.585-0.816,5.117-1.762,8.485c1.348-2.94,2.547-6.7,2.625-11.016c0-0.084,0.024-0.17,0.07-0.242c0,0,0.3-0.487,0.61-1.076
		c0.313-0.589,0.62-1.33,0.645-1.583c0.032-0.243,0.244-0.422,0.49-0.412c0.245,0.012,0.44,0.212,0.45,0.457
		c-0.004,0.41-0.023,3.649-0.343,7.542c-0.132,1.618-0.33,3.339-0.584,5.03c2.104-6.62,3.104-14.468,2.116-21.335
		c-0.659-4.568-2.189-8.695-4.827-11.763C94.722,13.09,91.003,11.06,85.855,10.65z"/>
	
		<path id="path2721" inkscape:export-filename="/home/dom/rect3439.png" inkscape:export-ydpi="87.986115" inkscape:export-xdpi="87.986115" fill="#C6A318" d="
		M91.697,14.354c0,0,7.101,6.696,7.837,10.713c0.735,4.02,2.21,9.978,2.007,12.925l0.134,0.202
		C106.096,23.796,91.697,14.355,91.697,14.354L91.697,14.354z"/>
	
		<path id="path2723" inkscape:export-filename="/home/dom/rect3439.png" inkscape:export-ydpi="87.986115" inkscape:export-xdpi="87.986115" fill="#C6A318" d="
		M91.096,23.528c0,0,4.486,6.897,6.027,11.451h0.065C95.582,23.462,91.096,23.528,91.096,23.528z"/>
	
		<linearGradient id="path2725_1_" gradientUnits="userSpaceOnUse" x1="2654.7119" y1="-2286.1284" x2="2699.4658" y2="-2333.8511" gradientTransform="matrix(0.12 0 0 -0.12 -246.9736 -254.6512)">
		<stop  offset="0" style="stop-color:#474442"/>
		<stop  offset="1" style="stop-color:#474442;stop-opacity:0"/>
	</linearGradient>
	
		<path id="path2725" inkscape:export-filename="/home/dom/rect3439.png" inkscape:export-ydpi="87.986115" inkscape:export-xdpi="87.986115" fill="url(#path2725_1_)" d="
		M81.088,21.272c-1.388,0.047-4.439,1.507-5.103,1.589c-0.757,0.095-1.894,3.316-2.651,4.073c-0.758,0.758-0.573,2.183-0.952,3.982
		c-0.115,0.543-0.146,1.083-0.142,1.577l0.039,0.006c0,0,1.606-5.421,2.008-5.489c0.401-0.065,0.937-0.271,1.139-1.208
		c0.199-0.939,1.946-1.134,2.213-1.603c0.269-0.469,1.674-0.474,2.144-1.21c0.467-0.736,1.736-0.933,1.736-0.933
		c1.354,0.107,2.656,0.024,3.591-0.077c-1.03-0.281-2.195-0.487-3.54-0.631C81.452,21.29,81.285,21.266,81.088,21.272z"/>
	
		<path id="path3372" inkscape:export-filename="/home/dom/rect3439.png" inkscape:export-ydpi="87.986115" inkscape:export-xdpi="87.986115" sodipodi:type="inkscape:offset" inkscape:radius="0" inkscape:original="M 337.59375 454.4375 C 325.35817 458.86667 308.73516 468.21858 304.21875 487.25 C 310.5037 480.41391 322.99602 467.53537 326.84375 469.21875 C 332.04749 471.49538 341.49305 473.1261 342.46875 489.0625 C 343.44446 504.99889 354.84375 492.95139 354.84375 491 C 354.84375 490.09656 353.14231 482.7423 351.34375 475.21875 C 346.57707 468.22097 342.09035 460.92925 337.59375 454.4375 z " opacity="0.1115" fill="#474442" enable-background="new    " d="
		M74.086,48.342c-2.519,0.913-5.939,2.837-6.871,6.755c1.292-1.409,3.866-4.059,4.657-3.712c1.072,0.47,3.016,0.805,3.218,4.085
		c0.2,3.282,2.547,0.801,2.547,0.4c0-0.186-0.351-1.701-0.721-3.25C75.937,51.179,75.013,49.678,74.086,48.342z"/>
	
		<path id="path3370" inkscape:export-filename="/home/dom/rect3439.png" inkscape:export-ydpi="87.986115" inkscape:export-xdpi="87.986115" sodipodi:type="inkscape:offset" inkscape:radius="-0.86921459" inkscape:original="M 339.8125 440.625 C 338.73061 440.91121 336.26139 446.85507 334.8125 450.59375 C 344.76706 464.08303 354.38763 482.55006 366.78125 494.21875 C 366.01033 490.45085 364.98356 486.17929 364.25 485.8125 C 362.94907 485.16204 356.44678 473.77661 352.21875 471.5 C 347.99073 469.22337 344.09374 458.81249 344.09375 458.8125 C 344.09375 458.8125 341.16319 443.53937 340.1875 440.9375 C 340.09603 440.69358 339.9757 440.58182 339.8125 440.625 z " fill="#D8B6A0" d="
		M74.498,45.805c-0.006,0.01-0.006,0.016-0.012,0.027c-0.076,0.124-0.169,0.301-0.264,0.502c-0.177,0.375-0.356,0.826-0.502,1.197
		c1.917,2.616,3.772,6.062,6.055,8.417c-0.039-0.168-0.076-0.356-0.115-0.496c-0.045-0.158-0.091-0.292-0.13-0.387
		c-0.018-0.045-0.034-0.082-0.045-0.104c-0.012-0.018-0.022-0.016,0.014,0c-0.101-0.049-0.138-0.109-0.206-0.191
		c-0.07-0.084-0.15-0.191-0.239-0.317c-0.179-0.247-0.399-0.564-0.638-0.893c-0.473-0.657-1.041-1.357-1.401-1.551
		c-0.515-0.278-0.921-0.945-1.236-1.551c-0.315-0.605-0.521-1.153-0.521-1.153l-0.006-0.031c0,0-0.152-0.782-0.328-1.634
		c-0.089-0.426-0.181-0.867-0.263-1.236C74.595,46.123,74.541,45.953,74.498,45.805z"/>
	
		<path id="path2748" inkscape:export-filename="/home/dom/rect3439.png" inkscape:export-ydpi="87.986115" inkscape:export-xdpi="87.986115" opacity="0.491" fill="#483E37" enable-background="new    " d="
		M107.423,95.813c-3.773,6.146-11.719,8.258-10.572,8.069c1.206-0.203,1.074,0.874,2.277,2.014c1.207,1.138,0.07,5.961,0.606,5.559
		c0.335-0.253,0.835-1.107,1.178-1.732c-0.053-0.09-0.114-0.155-0.167-0.204c-0.853-0.758,1.188-3.649,1.377-3.791
		c0.187-0.141,1.514-2.605,0.945-4.594C103.067,101.133,105.494,101.026,107.423,95.813z"/>
	
		<path id="path3380" inkscape:export-filename="/home/dom/rect3439.png" inkscape:export-ydpi="87.986115" inkscape:export-xdpi="87.986115" sodipodi:type="inkscape:offset" inkscape:radius="-0.91805613" inkscape:original="M 544.53125 615.125 C 535.80359 627.10493 510.38112 661.99388 509 663.375 C 508.50002 663.87498 506.90058 664.55311 505 665.21875 C 503.92279 670.39532 502.75734 674.96993 501.5 679.03125 C 506.35126 676.21914 512.31247 672.65627 514.4375 671.0625 C 518.1171 668.3028 564.60166 631.04425 568.28125 624.375 C 568.33379 624.27978 568.36297 624.19062 568.40625 624.09375 C 566.93011 624.01944 565.58626 623.9628 564.59375 624.03125 C 555.162 624.68171 547.68291 615.56251 545.40625 615.5625 C 545.1379 615.5625 544.85594 615.40349 544.53125 615.125 z " opacity="0.753" fill="#D8B6A0" enable-background="new    " d="
		M116.767,81.651c-0.914,1.254-2.606,3.577-4.146,5.675c-0.784,1.07-1.519,2.072-2.077,2.824c-0.28,0.378-0.521,0.685-0.696,0.915
		c-0.086,0.113-0.156,0.212-0.212,0.282s-0.084,0.111-0.12,0.148c-0.094,0.092-0.211,0.145-0.361,0.212
		c-0.125,0.056-0.28,0.117-0.438,0.175c-0.179,0.851-0.381,1.592-0.585,2.296c0.89-0.522,1.902-1.128,2.253-1.39
		c0.356-0.268,2.958-2.34,5.539-4.497c1.29-1.079,2.577-2.183,3.591-3.101c0.505-0.459,0.942-0.872,1.273-1.211
		c0.234-0.24,0.338-0.381,0.449-0.527c-0.136-0.004-0.302-0.012-0.397-0.006c-1.036,0.07-1.943-0.387-2.646-0.85
		c-0.35-0.231-0.651-0.466-0.888-0.637c-0.117-0.087-0.216-0.154-0.297-0.2c-0.078-0.045-0.14-0.057-0.134-0.057
		C116.828,81.704,116.804,81.666,116.767,81.651L116.767,81.651z"/>
	
		<path id="path3368" inkscape:export-filename="/home/dom/rect3439.png" inkscape:export-ydpi="87.986115" inkscape:export-xdpi="87.986115" sodipodi:type="inkscape:offset" inkscape:radius="-1.1218418" inkscape:original="M 174.875 657.9375 C 174.7153 657.94286 174.59147 657.97027 174.5 658.03125 C 171.5729 659.98266 192.70836 696.74652 189.78125 692.84375 C 188.83882 691.58719 186.22444 690.13616 183.09375 688.78125 C 189.70485 698.01448 196.22535 707.40601 202.09375 716 C 204.2976 713.36595 207.15973 710.40594 210.9375 710.0625 C 218.09262 709.41204 216.78588 712.03355 219.0625 708.78125 C 221.33913 705.52893 217.10648 695.77314 216.78125 689.59375 C 216.46618 683.60744 179.82564 657.77166 174.875 657.9375 z " fill="#FFCCAA" d="
		M40.694,90.511c0.004,0.045,0.008,0.078,0.025,0.147c0.055,0.223,0.167,0.542,0.321,0.914c0.311,0.742,0.774,1.7,1.241,2.617
		c0.47,0.92,0.941,1.804,1.256,2.407c0.156,0.303,0.276,0.536,0.342,0.675c0.015,0.038,0.027,0.062,0.037,0.092
		c0.006,0.014,0.008,0.026,0.012,0.045c0.007,0.019,0.023,0.032,0.016,0.103c-0.004,0.035-0.021,0.104-0.098,0.161
		c-0.076,0.055-0.171,0.046-0.212,0.032c-0.082-0.026-0.088-0.044-0.103-0.057c-0.029-0.028-0.044-0.05-0.064-0.079
		c-0.064-0.082-0.234-0.215-0.472-0.354c1.116,1.57,2.219,3.152,3.225,4.62c0.441-0.499,0.996-1.023,1.769-1.094
		c0.764-0.07,1.135,0.044,1.274,0.07c0.07,0.015,0.022,0.021,0.032,0.013c0.011-0.006,0.085-0.087,0.201-0.252
		c0.065-0.095,0.105-0.292,0.088-0.572c-0.014-0.277-0.078-0.622-0.16-0.99c-0.165-0.734-0.408-1.556-0.443-2.237
		c-0.002-0.041-0.095-0.254-0.296-0.503c-0.204-0.249-0.5-0.549-0.863-0.881c-0.723-0.663-1.696-1.44-2.701-2.174
		c-1.006-0.737-2.046-1.436-2.889-1.944c-0.421-0.256-0.794-0.46-1.089-0.6C40.906,90.559,40.773,90.529,40.694,90.511
		L40.694,90.511z"/>
	
		<path id="path3730" inkscape:export-filename="/home/dom/rect3439.png" inkscape:export-ydpi="87.986115" inkscape:export-xdpi="87.986115" opacity="0.3735" fill="#272726" enable-background="new    " d="
		M54.757,98.148c-0.051,0.002-0.092,0.006-0.121,0.012c-0.469,0.102-1.475,0.098-1.475,0.464c0,0.368-0.133,1.744,0.169,1.777
		c0.301,0.032,0.702-0.535,1.003-0.367c0.3,0.168,0.667,0.471,0.733,0.772c0.068,0.3-0.097,0.937,0.271,0.972
		c0.369,0.032,2.074-2.249,1.839-1.345c-0.233,0.903-1.336,1.408-0.9,1.878c0.23,0.249,0.892,0.582,1.474,0.851
		c-0.035-0.25-0.068-0.514-0.097-0.78c-0.001-0.021-0.004-0.041-0.006-0.064c-0.019-0.168-0.038-0.339-0.052-0.515
		c-0.004-0.041-0.004-0.08-0.009-0.121c-0.012-0.154-0.022-0.31-0.03-0.463c-0.006-0.088-0.011-0.171-0.012-0.258
		c-0.007-0.128-0.013-0.254-0.015-0.381c-0.002-0.189,0.001-0.377,0.006-0.558c0.001-0.018,0-0.031,0-0.046
		c0.009-0.188,0.022-0.367,0.039-0.541v-0.006c0.005-0.045,0.015-0.087,0.021-0.128c0.004-0.046,0.006-0.093,0.012-0.138v-0.006
		c0.004-0.025,0.008-0.05,0.013-0.077c0.01-0.063,0.02-0.124,0.032-0.187c0.013-0.071,0.027-0.139,0.045-0.205
		c0.002-0.014,0.002-0.026,0.006-0.038c0.006-0.027,0.017-0.052,0.025-0.079c0.014-0.049,0.028-0.098,0.045-0.146
		C56.806,98.304,55.279,98.127,54.757,98.148z"/>
	
		<path id="path2823" inkscape:export-filename="/home/dom/rect3439.png" inkscape:export-ydpi="87.986115" inkscape:export-xdpi="87.986115" fill="#302823" d="
		M58.375,96.861c-0.434,0.292-2.442,1.896-1.962,6.423l2.713-0.491c0,0,2.747,1.8,3.316,1.61c0.567-0.189-0.856-2.935-0.856-2.935
		c2.083,3.032,9.755,2.085,9.755,2.085C66.095,103.609,61.336,99.857,58.375,96.861z"/>
	
		<path id="path3391" inkscape:export-filename="/home/dom/rect3439.png" inkscape:export-ydpi="87.986115" inkscape:export-xdpi="87.986115" sodipodi:type="inkscape:offset" inkscape:radius="-1.2262211" inkscape:original="M 607.5 571.3125 C 606.6352 578.261 605.47088 586.04069 604.28125 588.25 C 602.00464 592.478 606.23727 590.52893 606.5625 593.78125 C 606.82627 596.41919 602.81171 608.25041 602.5 613.84375 C 607.33491 608.03391 610.99739 599.12022 612.1875 585.5 C 612.18749 585.49998 608.52244 576.30217 608.0625 573.3125 C 607.99346 572.86372 607.78644 572.17812 607.5 571.3125 z " fill="#483E37" d="
		M129.743,73.571c-0.048,0.335-0.088,0.688-0.142,0.989c-0.116,0.645-0.214,1.149-0.378,1.454c-0.108,0.197-0.109,0.286-0.111,0.284
		c0-0.002-0.023-0.016,0.038,0.018c0.064,0.035,0.187,0.076,0.311,0.182c0.122,0.104,0.234,0.284,0.256,0.509
		c0.022,0.217-0.032,0.462-0.103,0.791c-0.073,0.33-0.173,0.723-0.276,1.133c-0.097,0.382-0.195,0.78-0.277,1.15
		c0.639-1.112,1.118-2.632,1.307-4.729c-0.024-0.058-0.18-0.446-0.367-0.963C129.894,74.091,129.833,73.852,129.743,73.571
		L129.743,73.571z"/>
	
		<path id="path3389" inkscape:export-filename="/home/dom/rect3439.png" inkscape:export-ydpi="87.986115" inkscape:export-xdpi="87.986115" sodipodi:type="inkscape:offset" inkscape:radius="-0.58099759" inkscape:original="M 585.9375 540.4375 C 587.88336 550.41182 589.27445 566.03522 582.5 577.53125 C 582.50002 577.53128 589.96758 566.12962 591.59375 568.40625 C 593.21988 570.6829 596.48032 573.62617 597.78125 572 C 598.75418 570.78385 595.17694 559.55724 593.3125 552.34375 C 592.24069 551.61445 591.08255 550.9585 589.875 550.34375 C 589.87499 550.34376 589.68786 546.63707 585.9375 540.4375 z " fill="#483E37" d="
		M125.438,66.724c0.275,1.726,0.406,3.959-0.32,5.932c0.038-0.054,0.071-0.106,0.114-0.161c0.216-0.267,0.438-0.522,0.643-0.688
		c0.103-0.082,0.199-0.14,0.302-0.168c0.106-0.027,0.235,0.002,0.303,0.097c0.162,0.225,0.407,0.488,0.631,0.645
		c0.113,0.078,0.228,0.128,0.304,0.142c0.077,0.013,0.106-0.002,0.147-0.054c-0.016,0.019,0.014-0.022,0.014-0.103
		c-0.002-0.078-0.017-0.194-0.038-0.327c-0.046-0.268-0.131-0.626-0.233-1.023c-0.202-0.778-0.475-1.705-0.668-2.443
		c-0.205-0.139-0.426-0.257-0.658-0.374c-0.038-0.018-0.067-0.059-0.07-0.103c0,0-0.006-0.175-0.108-0.515
		C125.733,67.362,125.605,67.064,125.438,66.724L125.438,66.724z"/>
	
		<path id="path2828" sodipodi:nodetypes="ccc" inkscape:export-filename="/home/dom/rect3439.png" inkscape:export-ydpi="87.986115" inkscape:export-xdpi="87.986115" fill="#17100C" d="
		M42.316,58.946c-1.549,5.225-3.036,10.875,5.02,16.099C33.604,70.406,42.316,58.946,42.316,58.946z"/>
	
		<path id="path2830" inkscape:export-filename="/home/dom/rect3439.png" inkscape:export-ydpi="87.986115" inkscape:export-xdpi="87.986115" fill="#17100C" d="
		M32.278,66.523c0,0-2.793,8.474,7.103,12.642l0.189,0.048C32.515,74.807,32.278,66.523,32.278,66.523z"/>
	
		<path id="path2832" inkscape:export-filename="/home/dom/rect3439.png" inkscape:export-ydpi="87.986115" inkscape:export-xdpi="87.986115" fill="#17100C" d="
		M49.75,55.868c0,0-10.274,5.541-0.521,18.562C49.229,74.429,41.937,63.066,49.75,55.868z"/>
	
		<path id="path3683" sodipodi:nodetypes="ccc" inkscape:export-filename="/home/dom/rect3439.png" inkscape:export-ydpi="87.986115" inkscape:export-xdpi="87.986115" opacity="0.47" fill="#A5968C" enable-background="new    " d="
		M89.083,38.012c0,0,4.822,1.472,6.83-1.004C95.913,37.008,92.499,31.986,89.083,38.012z"/>
	
		<path id="path2712" sodipodi:nodetypes="ccc" inkscape:export-filename="/home/dom/rect3439.png" inkscape:export-ydpi="87.986115" inkscape:export-xdpi="87.986115" opacity="0.4729" fill="#A5968C" enable-background="new    " d="
		M82.324,38.06c0,0-4.822,1.472-6.83-1.005C75.494,37.055,78.907,32.033,82.324,38.06z"/>
	
		<path id="path2687" sodipodi:nodetypes="cccc" inkscape:export-filename="/home/dom/rect3439.png" inkscape:export-ydpi="87.986115" inkscape:export-xdpi="87.986115" stroke="#000000" d="
		M76.858,36.573c0,0,0.805,1.586,4.689,1.159h0.07C80.102,34.064,76.858,36.573,76.858,36.573z"/>
	
		<path id="path2685" sodipodi:nodetypes="cccc" inkscape:export-filename="/home/dom/rect3439.png" inkscape:export-ydpi="87.986115" inkscape:export-xdpi="87.986115" fill="#FFFFFF" stroke="#000000" d="
		M77.379,36.62c0,0,0.284,1.539,4.168,1.112h0.07C80.527,34.537,77.379,36.62,77.379,36.62z"/>
	
		<path id="path2689" sodipodi:nodetypes="cccc" inkscape:export-filename="/home/dom/rect3439.png" inkscape:export-ydpi="87.986115" inkscape:export-xdpi="87.986115" fill="none" stroke="#000000" d="
		M93.74,36.88c0,0-0.284,1.54-4.167,1.113h-0.072C90.59,34.798,93.74,36.88,93.74,36.88z"/>
	
		<path id="path2691" sodipodi:nodetypes="cccc" inkscape:export-filename="/home/dom/rect3439.png" inkscape:export-ydpi="87.986115" inkscape:export-xdpi="87.986115" stroke="#000000" d="
		M94.262,36.833c0,0-0.806,1.587-4.688,1.161h-0.072C91.017,34.325,94.262,36.833,94.262,36.833z"/>
	
		<path id="path2703" inkscape:export-filename="/home/dom/rect3439.png" inkscape:export-ydpi="87.986115" inkscape:export-xdpi="87.986115" fill="#171310" d="
		M76.173,33.235c0,0,5.539,2.271,6.202,2.318C83.037,35.601,81.143,33.331,76.173,33.235z"/>
	
		<path id="path2705" inkscape:export-filename="/home/dom/rect3439.png" inkscape:export-ydpi="87.986115" inkscape:export-xdpi="87.986115" fill="#171310" d="
		M89.289,35.317c0,0,5.683-1.514,6.014-1.514C95.635,33.803,92.887,32.194,89.289,35.317z"/>
	<defs>
		<filter id="Adobe_OpacityMaskFilter" filterUnits="userSpaceOnUse" x="77.94" y="34.946" width="3.141" height="2.986">
			<feColorMatrix  type="matrix" values="1 0 0 0 0  0 1 0 0 0  0 0 1 0 0  0 0 0 1 0"/>
		</filter>
	</defs>
	<mask maskUnits="userSpaceOnUse" x="77.94" y="34.946" width="3.141" height="2.986" id="mask3657">
		<path id="path3659" sodipodi:nodetypes="cccc" fill="#FFFFFF" filter="url(#Adobe_OpacityMaskFilter)" d="M98.005,86.958
			c0,0,0.284,1.539,4.166,1.112h0.072C101.153,84.875,98.005,86.958,98.005,86.958z"/>
	</mask>
	
		<g id="g3651" transform="translate(-76.755 -239.37)" inkscape:export-filename="/home/dom/rect3439.png" inkscape:export-ydpi="87.986115" inkscape:export-xdpi="87.986115" mask="url(#mask3657)">
		
			<path id="path2834" sodipodi:cx="364.76791" sodipodi:cy="394.6358" sodipodi:type="arc" sodipodi:ry="5.5768757" sodipodi:rx="6.4680257" fill="#28170B" stroke="#000000" stroke-width="0.6041" d="
			M157.534,275.809c0,0.658-0.568,1.191-1.269,1.191c-0.7,0-1.268-0.534-1.268-1.191c0-0.657,0.568-1.19,1.268-1.19
			C156.965,274.618,157.534,275.151,157.534,275.809z"/>
		
			<path id="path3606" sodipodi:cx="364.76791" sodipodi:cy="394.6358" sodipodi:type="arc" sodipodi:ry="5.5768757" sodipodi:rx="6.4680257" d="
			M156.895,275.808c0,0.327-0.281,0.592-0.629,0.592c-0.348,0-0.629-0.265-0.629-0.592c0-0.326,0.281-0.591,0.629-0.591
			C156.614,275.217,156.895,275.482,156.895,275.808z"/>
	</g>
	
		<path id="path3663" sodipodi:nodetypes="cccc" inkscape:export-filename="/home/dom/rect3439.png" inkscape:export-ydpi="87.986115" inkscape:export-xdpi="87.986115" fill="#FFFFFF" stroke="#000000" d="
		M93.74,36.88c0,0-0.284,1.54-4.167,1.113h-0.072C90.59,34.798,93.74,36.88,93.74,36.88z"/>
	
		<path id="path3620" sodipodi:nodetypes="cccccccccccccccccsccc" inkscape:export-filename="/home/dom/rect3439.png" inkscape:export-ydpi="87.986115" inkscape:export-xdpi="87.986115" d="
		M89.453,37.993c0,0,1.231-3.942,5.328-0.792l0.983-0.369c0,0-0.811,0.131-0.904,0.131c0,0,0.396-0.362,0.472-0.346
		c0,0-0.546,0.186-0.628,0.202c0,0,0.133-0.343,0.309-0.442c0,0-0.459,0.216-0.52,0.225c0,0,0.178-0.31,0.243-0.31l-0.502,0.167
		c0,0,0.15-0.284,0.243-0.301c0,0-0.345,0.167-0.386,0.167c0,0,0.059-0.251,0.126-0.268L93.8,36.234c0,0,0.108-0.301,0.184-0.309
		c0,0-0.36,0.183-0.418,0.193c0,0,0.1-0.259,0.149-0.278c0,0-0.393,0.148-0.401,0.152c-0.024,0.006,0.085-0.27,0.085-0.27
		l-0.328,0.251c0,0-0.067-0.082,0-0.232l-0.263,0.205l0.101-0.223c0,0-0.386,0.126-0.554,0.157
		C92.188,35.908,90.04,35.891,89.453,37.993z"/>
	<defs>
		<filter id="Adobe_OpacityMaskFilter_1_" filterUnits="userSpaceOnUse" x="90.228" y="35.207" width="3.14" height="2.985">
			<feColorMatrix  type="matrix" values="1 0 0 0 0  0 1 0 0 0  0 0 1 0 0  0 0 0 1 0"/>
		</filter>
	</defs>
	<mask maskUnits="userSpaceOnUse" x="90.228" y="35.207" width="3.14" height="2.985" id="mask3679">
		<path id="path3681" sodipodi:nodetypes="cccc" fill="#FFFFFF" filter="url(#Adobe_OpacityMaskFilter_1_)" d="M114.363,87.219
			c0,0-0.283,1.539-4.167,1.112h-0.07C111.216,85.135,114.363,87.219,114.363,87.219z"/>
	</mask>
	
		<g id="g3665" transform="translate(-76.755 -239.37)" inkscape:export-filename="/home/dom/rect3439.png" inkscape:export-ydpi="87.986115" inkscape:export-xdpi="87.986115" mask="url(#mask3679)">
		
			<path id="path3616" sodipodi:cx="364.76791" sodipodi:cy="394.6358" sodipodi:type="arc" sodipodi:ry="5.5768757" sodipodi:rx="6.4680257" fill="#2B1100" stroke="#000000" stroke-width="0.6041" d="
			M169.82,276.069c0,0.658-0.566,1.191-1.268,1.191c-0.7,0-1.268-0.533-1.268-1.191c0-0.657,0.567-1.19,1.268-1.19
			C169.254,274.879,169.82,275.412,169.82,276.069z"/>
		
			<path id="path3618" sodipodi:cx="364.76791" sodipodi:cy="394.6358" sodipodi:type="arc" sodipodi:ry="5.5768757" sodipodi:rx="6.4680257" d="
			M169.183,276.068c0,0.326-0.281,0.59-0.629,0.59s-0.629-0.264-0.629-0.59c0-0.327,0.281-0.592,0.629-0.592
			S169.183,275.741,169.183,276.068z"/>
	</g>
	
		<path id="path3622" sodipodi:nodetypes="cccccccccccccccccsccc" inkscape:export-filename="/home/dom/rect3439.png" inkscape:export-ydpi="87.986115" inkscape:export-xdpi="87.986115" d="
		M81.651,37.742c0,0-1.23-3.942-5.328-0.792l-0.982-0.369c0,0,0.807,0.131,0.901,0.131c0,0-0.393-0.362-0.469-0.344
		c0,0,0.543,0.184,0.627,0.199c0,0-0.133-0.343-0.308-0.441c0,0,0.459,0.215,0.519,0.224c0,0-0.176-0.309-0.243-0.309l0.502,0.167
		c0,0-0.151-0.284-0.243-0.3c0,0,0.343,0.167,0.384,0.167c0,0-0.059-0.251-0.125-0.268l0.418,0.177c0,0-0.109-0.303-0.183-0.311
		c0,0,0.36,0.186,0.417,0.193c0,0-0.1-0.259-0.15-0.277c0,0,0.393,0.148,0.401,0.152c0.023,0.006-0.084-0.267-0.084-0.267
		l0.327,0.249c0,0,0.066-0.083,0-0.232l0.264,0.204l-0.102-0.22c0,0,0.386,0.125,0.552,0.154
		C78.918,35.657,81.065,35.64,81.651,37.742z"/>
	
		<path id="path3741" sodipodi:nodetypes="cssc" inkscape:export-filename="/home/dom/rect3439.png" inkscape:export-ydpi="87.986115" inkscape:export-xdpi="87.986115" opacity="0.3524" fill="#CCCCCC" enable-background="new    " d="
		M80.717,50.281c0.037,0.107,2.421,2.333,3.03,2.273c0.955-0.097,0.379,1.513-0.378,1.229
		C82.612,53.502,81.143,51.229,80.717,50.281z"/>
	
		<path id="path3743" sodipodi:nodetypes="cssc" inkscape:export-filename="/home/dom/rect3439.png" inkscape:export-ydpi="87.986115" inkscape:export-xdpi="87.986115" opacity="0.3524" fill="#CCCCCC" enable-background="new    " d="
		M89.28,50.687c-0.045,0.103-2.626,2.102-3.227,1.985c-0.94-0.183-0.517,1.474,0.264,1.26C87.099,53.719,88.768,51.59,89.28,50.687z
		"/>
	
		<path id="path3393" sodipodi:nodetypes="ccscccsscccscccsssssssssscccssssssscssccssccscsscccscsscccscccscsscsccccsssccccssccsccsssssssssscscsscsc" inkscape:export-filename="/home/dom/rect3439.png" inkscape:export-ydpi="87.986115" inkscape:export-xdpi="87.986115" fill="#241F1C" d="
		M81.429,9.646L81.3,9.697c-5.516,2.269-8.158,4.717-9.586,7.239c-1.432,2.521-1.646,5.085-2.369,7.573l-0.006,0.033v0.032
		c0.095,9.479,0.818,13.487,1.557,15.185c0.369,0.849,0.767,1.155,1.133,1.184c0.362,0.03,0.599-0.226,0.599-0.226l0.07-0.076
		l-0.013-0.103c0,0-0.189-1.104-0.284-2.407c-0.092-1.301-0.072-2.817,0.264-3.531l0.033-0.066l-0.019-0.07
		c0,0-0.457-1.769-0.09-3.506c0.193-0.918,0.242-1.731,0.333-2.395c0.093-0.661,0.226-1.151,0.554-1.479
		c0.223-0.224,0.435-0.576,0.664-0.991c0.228-0.415,0.465-0.892,0.702-1.345c0.235-0.453,0.465-0.884,0.681-1.197
		c0.215-0.312,0.435-0.476,0.488-0.482c0.253-0.032,0.62-0.169,1.108-0.353c0.488-0.185,1.071-0.414,1.66-0.625
		c0.588-0.211,1.18-0.406,1.674-0.515c0.491-0.109,0.891-0.107,1.029-0.039l0.031,0.014l0.039,0.006
		c3.564,0.382,5.814,1.191,7.668,2.665c1.854,1.472,3.32,3.627,5.245,6.704c0,0.001-0.002,0.006,0,0.006
		c0.14,0.332,0.912,2.375,1.602,4.684c0.696,2.337,1.291,4.977,1.114,6.358c-0.189,1.453-0.754,4.695-1.604,7.854
		c-0.424,1.581-0.922,3.14-1.472,4.447c-0.27,0.639-0.552,1.211-0.845,1.7c-0.531,0.729-0.908,1.175-0.927,1.196
		c-0.004,0.005-0.008,0.011-0.012,0.013l-0.013,0.02l0.29,0.289c0.007-0.004,0.013-0.013,0.02-0.019
		c0.002-0.001,0.002-0.01,0.006-0.012c0.351-0.319,0.675-0.751,0.984-1.269c1.833-2.521,5.623-8.655,5.785-16.599
		c0.026-0.047,0.342-0.554,0.676-1.198c0.076-0.146,0.134-0.298,0.206-0.449c-0.024,1.435-0.089,3.924-0.405,7.31
		c-0.218,2.331-0.549,4.812-1.036,6.986c-0.241,1.069-0.521,2.059-0.845,2.928c-0.374,0.78-0.759,1.55-1.163,2.252l0.347,0.23
		c0.006-0.007,0.008-0.019,0.014-0.025c0.455-0.609,0.845-1.397,1.185-2.31c3.452-7.18,5.594-17.295,4.639-26.2
		c-0.531-4.948-2.015-9.513-4.774-12.958c-2.762-3.445-6.803-5.762-12.387-6.19h-0.037l-0.039,0.013c0,0-0.789,0.228-1.727,0.309
		c-0.934,0.08-1.989-0.014-2.521-0.547L81.429,9.646z M81.363,10.128c0.707,0.595,1.793,0.654,2.722,0.573
		c0.948-0.082,1.705-0.298,1.763-0.314c5.468,0.428,9.374,2.673,12.064,6.028c2.695,3.363,4.166,7.853,4.691,12.746
		c0.823,7.678-0.699,16.311-3.359,23.112c0.489-2.189,0.812-4.657,1.03-6.982c0.438-4.687,0.443-8.788,0.443-8.788h-0.008
		c0-0.008,0.003-0.019,0-0.027l-0.405,0.027v0.024c0.015,0.113-0.04,0.388-0.154,0.697c-0.115,0.307-0.279,0.656-0.449,0.984
		c-0.339,0.653-0.696,1.215-0.696,1.215l-0.023,0.046v0.057c-0.108,5.994-2.331,10.922-4.185,14.053
		c0.431-1.139,1.069-2.741,1.413-4.016c0.854-3.186,1.422-6.426,1.614-7.908c0.202-1.555-0.431-4.171-1.133-6.524l-1.647-4.787
		c-1.929-3.086-3.409-5.286-5.332-6.813c-1.926-1.528-4.516-2-8.123-2.386v0.006c-0.328-0.132-0.737-0.088-1.23,0.02
		c-0.524,0.117-1.127,0.32-1.725,0.534c-0.595,0.215-1.182,0.442-1.665,0.624c-0.484,0.183-0.884,0.319-1.012,0.335
		c-0.325,0.041-0.537,0.314-0.772,0.657c-0.234,0.341-0.475,0.784-0.713,1.242c-0.237,0.457-0.472,0.927-0.694,1.33
		c-0.222,0.406-0.437,0.746-0.593,0.903c-0.431,0.429-0.579,1.022-0.675,1.71c-0.098,0.688-0.143,1.486-0.328,2.368
		c-0.381,1.808,0.057,3.531,0.084,3.63c-0.391,0.902-0.371,2.368-0.278,3.661c0.09,1.246,0.249,2.172,0.27,2.296
		c-0.038,0.032-0.083,0.08-0.198,0.072c-0.158-0.013-0.451-0.155-0.792-0.939c-0.682-1.567-1.423-5.562-1.519-14.999
		c0.732-2.527,0.949-5.028,2.324-7.45C73.443,14.725,75.973,12.363,81.363,10.128z"/>
	
		<rect id="rect3439" x="25.203" y="5.113" inkscape:export-ydpi="87.986115" inkscape:export-xdpi="87.986115" fill="none" width="107.409" height="120">
	</rect>
</g>
</svg>
